<?xml version="1.0" encoding="UTF-8"?>
<svg width="19px" height="16px" viewBox="0 0 19 16" version="1.1" xmlns="http://www.w3.org/2000/svg" xmlns:xlink="http://www.w3.org/1999/xlink">
    <!-- Generator: Sketch 44.1 (41455) - http://www.bohemiancoding.com/sketch -->
    <title>职位 copy</title>
    <desc>Created with Sketch.</desc>
    <defs></defs>
    <g id="管理者主页" stroke="none" stroke-width="1" fill="none" fill-rule="evenodd">
        <g id="3-2-1考核管理已提交审核" transform="translate(-488.000000, -434.000000)" fill-rule="nonzero" fill="#D9DDE7">
            <g id="Group-6" transform="translate(410.000000, 120.000000)">
                <g id="Group-3">
                    <g id="Group-5" transform="translate(0.000000, 182.000000)">
                        <g id="职位-copy" transform="translate(78.000000, 132.000000)">
                            <path d="M3.57585253,1.70666667 L3.57585253,5.24487805 L15.4276498,5.24487805 L15.4276498,1.70666667 C15.4276498,0.749268293 14.6291244,-2.84217094e-14 13.7045161,-2.84217094e-14 L5.34101382,-2.84217094e-14 C4.37437788,-2.84217094e-14 3.57585253,0.749268293 3.57585253,1.70666667 Z M6.18156682,4.78699187 L6.18156682,2.0396748 L12.8219355,2.0396748 L12.8219355,4.78699187 L6.18156682,4.78699187 Z" id="Shape"></path>
                            <path d="M0.00350230415,5.20325203 L0.00350230415,7.49268293 L7.14820276,7.49268293 C7.35834101,6.4104065 8.32497696,5.6195122 9.4597235,5.6195122 C10.59447,5.6195122 11.561106,6.4104065 11.7712442,7.49268293 L18.9159447,7.49268293 L18.9159447,5.20325203 C18.9159447,4.24585366 18.159447,3.49658537 17.1928111,3.49658537 L1.72663594,3.49658537 C0.80202765,3.49658537 0.00350230415,4.24585366 0.00350230415,5.20325203 Z" id="Shape"></path>
                            <path d="M11.7292166,8.65821138 C11.435023,9.57398374 10.5524424,10.281626 9.50175115,10.281626 C8.45105991,10.281626 7.56847926,9.61560976 7.27428571,8.65821138 L0.00350230415,8.65821138 L0.00350230415,13.9447154 C0.00350230415,15.0686179 0.928110599,15.9843902 2.06285714,15.9843902 L16.9406452,15.9843902 C18.0753917,15.9843902 19,15.0686179 19,13.9447154 L19,8.65821138 L11.7292166,8.65821138 L11.7292166,8.65821138 Z" id="Shape"></path>
                            <path d="M8.49308756,7.99219512 C8.49308756,8.52095393 8.9258629,8.9495935 9.4597235,8.9495935 C9.9935841,8.9495935 10.4263594,8.52095393 10.4263594,7.99219512 C10.4263594,7.46343631 9.9935841,7.03479675 9.4597235,7.03479675 C8.9258629,7.03479675 8.49308756,7.46343631 8.49308756,7.99219512 C8.49308756,7.99219512 8.49308756,7.99219512 8.49308756,7.99219512 Z" id="Shape"></path>
                        </g>
                    </g>
                </g>
            </g>
        </g>
    </g>
</svg>