<?xml version="1.0" encoding="UTF-8"?>
<svg width="19px" height="19px" viewBox="0 0 19 19" version="1.1" xmlns="http://www.w3.org/2000/svg" xmlns:xlink="http://www.w3.org/1999/xlink">
    <!-- Generator: Sketch 44.1 (41455) - http://www.bohemiancoding.com/sketch -->
    <title>日历</title>
    <desc>Created with Sketch.</desc>
    <defs></defs>
    <g id="管理者主页" stroke="none" stroke-width="1" fill="none" fill-rule="evenodd">
        <g id="3-2-1考核管理已提交审核" transform="translate(-639.000000, -173.000000)" fill-rule="nonzero" fill="#3DA8F5">
            <g id="日历" transform="translate(639.000000, 173.000000)">
                <path d="M6.44396467,1.06875 L12.5299313,1.06875 L12.5299313,2.01875 L6.44396467,2.01875 L6.44396467,1.06875 Z M13.9619235,0.475 L13.9619235,2.49375 C13.9619235,2.85 13.7232581,2.96875 13.4845927,2.96875 C13.2459274,2.96875 13.007262,2.73125 13.007262,2.49375 L13.007262,0.475 C13.007262,0.11875 13.2459274,0 13.4845927,0 C13.7232581,0 13.9619235,0.2375 13.9619235,0.475 Z M5.96663395,0.475 L5.96663395,2.49375 C5.96663395,2.85 5.7279686,2.96875 5.48930324,2.96875 C5.25063788,2.96875 5.01197252,2.73125 5.01197252,2.49375 L5.01197252,0.475 C5.01197252,0.2375 5.1313052,0 5.48930324,0 C5.84730128,0 5.96663395,0.2375 5.96663395,0.475 Z M14.0812561,14.0125 L5.01197252,14.0125 C4.65397448,14.0125 4.53464181,13.775 4.53464181,13.5375 C4.53464181,13.3 4.77330716,13.0625 5.01197252,13.0625 L14.0812561,13.0625 C14.4392542,13.0625 14.5585868,13.3 14.5585868,13.5375 C14.5585868,13.775 14.3199215,14.0125 14.0812561,14.0125 Z M14.0812561,10.56875 L5.01197252,10.56875 C4.77330716,10.56875 4.53464181,10.33125 4.53464181,10.09375 C4.53464181,9.7375 4.77330716,9.5 5.01197252,9.5 L14.0812561,9.5 C14.4392542,9.5 14.5585868,9.7375 14.5585868,9.975 C14.5585868,10.33125 14.3199215,10.56875 14.0812561,10.56875 Z" id="Shape"></path>
                <path d="M0.954661433,18.05 L0.954661433,6.175 L18.0192345,6.175 L18.0192345,18.05 L0.954661433,18.05 Z M18.1385672,1.06875 L14.5585868,1.06875 L14.5585868,2.01875 L18.1385672,2.01875 L18.1385672,5.225 L0.954661433,5.225 L0.954661433,2.01875 L4.41530913,2.01875 L4.41530913,1.06875 L0.954661433,1.06875 C0.477330716,1.06875 0,1.54375 0,2.01875 L0,18.05 C0,18.525 0.477330716,19 0.954661433,19 L18.0192345,19 C18.6158979,19 18.973896,18.525 18.973896,18.05 L18.973896,2.01875 C19.0932287,1.54375 18.6158979,1.06875 18.1385672,1.06875 L18.1385672,1.06875 Z" id="Shape"></path>
            </g>
        </g>
    </g>
</svg>