<?xml version="1.0" encoding="UTF-8" standalone="no"?>
<svg width="20px" height="20px" viewBox="0 0 20 20" version="1.1" xmlns="http://www.w3.org/2000/svg" xmlns:xlink="http://www.w3.org/1999/xlink">
    <!-- Generator: Sketch 43.1 (39012) - http://www.bohemiancoding.com/sketch -->
    <title>头像 (5)</title>
    <desc>Created with Sketch.</desc>
    <defs></defs>
    <g id="组织设置" stroke="none" stroke-width="1" fill="none" fill-rule="evenodd">
        <g id="2-1-1组织设置" transform="translate(-1848.000000, -15.000000)">
            <g id="Group-2" transform="translate(1840.000000, 0.000000)">
                <g id="头像-(5)" transform="translate(8.000000, 15.000000)">
                    <rect id="Rectangle-2" fill="#FFFFFF" opacity="0" x="0" y="0" width="20.0181079" height="20"></rect>
                    <g stroke-width="1" transform="translate(0.800724, 0.800000)" id="Shape" fill="#4C5C6F">
                        <path d="M9.20832962,18.3864706 C4.13112358,18.3864706 0.00423157885,14.2654118 0.00423157885,9.19621176 C0.00423157885,4.12647059 4.13112358,0.00541175625 9.20832962,0.00541175625 C14.2855356,0.00541175625 18.4124277,4.12592941 18.4124277,9.19567059 C18.4124277,14.2654118 14.2855356,18.3859294 9.20832962,18.3859294 L9.20832962,18.3864706 Z M0.798783112,9.19621176 C0.798783112,13.8232706 4.57398837,17.5931059 9.20832962,17.5931059 C13.8426709,17.5931059 17.6178761,13.8232706 17.6178761,9.19621176 C17.6178761,4.56915292 13.8426709,0.799317652 9.20832962,0.799317652 C4.57398837,0.799317652 0.798783112,4.56861177 0.798783112,9.19621176 L0.798783112,9.19621176 Z" fill-rule="nonzero"></path>
                        <path d="M3.78432136,16.1097412 C4.33627417,15.7763765 4.96475141,15.5442118 5.53135784,15.3347765 C6.38506657,15.0208941 7.12317455,14.7503059 7.34460695,14.2713647 C7.3804269,13.8860471 7.37717054,13.5856941 7.37499963,13.2404235 L7.37391418,13.0834823 C7.03959467,12.7717647 6.69713428,12.1088235 6.57339266,11.5216471 C6.44979268,11.4616341 6.3405861,11.3758103 6.25318404,11.27 C6.07191341,11.0546118 5.95631267,10.7434353 5.9036682,10.3462118 C5.85590827,9.96955294 5.97693626,9.6805647 6.13975422,9.49331765 C5.69688942,7.77075294 5.82714377,6.45894118 6.52726091,5.59414118 C7.11991821,4.86571765 8.09736856,4.48418824 9.43193292,4.46037647 C10.3144061,4.46037647 10.9689343,4.68171765 11.3124801,5.08543529 C11.9339019,5.20070588 12.4044457,5.49672941 12.715428,5.96701176 C13.0535466,6.47355294 13.1870573,7.16571763 13.112161,8.02618824 C13.0659686,8.52877644 12.9658975,9.02498181 12.8136615,9.50630588 C12.9737658,9.69355294 13.0893665,9.97767059 13.0405212,10.3472941 C12.9895049,10.7439765 12.8722759,11.0546118 12.6926335,11.27 C12.60037,11.3798588 12.4918247,11.4648235 12.3724249,11.5211059 C12.3021525,11.8462047 12.1878557,12.1602604 12.0326781,12.4546353 C11.9268465,12.6613647 11.771084,12.9151765 11.5914415,13.0851059 C11.5914415,13.1392235 11.5898133,13.1928 11.5898133,13.2452941 C11.5870997,13.5884 11.5833006,13.8865882 11.6164069,14.2713647 C11.8389248,14.7492235 12.7995506,15.0733882 13.6462039,15.3867294 C13.8991144,15.4803529 14.4103627,15.6151059 14.5199935,15.7725882 C14.6307097,15.9300706 14.3501201,16.2434118 14.122175,16.2980706 C13.7335828,16.3916941 13.3737552,16.0891765 13.1127038,15.9923059 C12.1233134,15.6270118 11.1784267,15.2536 10.8669017,14.4683529 C10.8553688,14.4403569 10.8480533,14.4108135 10.8451926,14.3806823 C10.8113516,14.0005092 10.799392,13.6187144 10.8093727,13.2371765 C10.8099154,13.1359765 10.8110009,13.0315294 10.8110009,12.9211294 C10.8110009,12.7966588 10.8837262,12.6824706 10.9993269,12.6240235 C11.1339231,12.5336471 11.5729888,11.8734118 11.6457142,11.2288706 C11.6647096,11.0670588 11.8041903,10.9415059 11.9756918,10.9274353 C12.022909,10.9241882 12.2112351,10.8002588 12.2779905,10.2682823 C12.3138104,9.99390588 12.1705306,9.89865882 12.1705306,9.89649412 C12.0284055,9.8205157 11.9628092,9.65274734 12.0158536,9.50089412 C12.294815,8.71672941 12.739308,7.25934118 12.1813852,6.41943529 C11.9610382,6.08498823 11.6158642,5.89124704 11.130124,5.82792941 C11.0213001,5.81460743 10.9244499,5.75268081 10.8669017,5.65962353 C10.7051692,5.39444706 10.1450755,5.21044706 9.46503923,5.20990588 C8.36601815,5.23047059 7.45315223,5.59143529 7.00431745,6.14722353 C6.7058179,6.51414118 6.65642979,6.87564706 6.62875076,7.49096471 C6.60161444,8.07164706 6.69387794,8.7676 6.90716941,9.53661176 C6.94805236,9.68384425 6.8813873,9.8397004 6.74652239,9.91218824 C6.74543694,9.91272943 6.60215715,10.0096 6.63689164,10.2834353 C6.70636063,10.8164941 6.89414399,10.9404235 6.93919029,10.9431294 C7.11340549,10.9566588 7.25234345,11.0827529 7.27025342,11.2440235 C7.34297877,11.8853177 7.80700989,12.5341882 7.9464906,12.6261882 C8.06055098,12.6815564 8.1336064,12.7962692 8.13535941,12.9227529 C8.13535941,13.0320706 8.13590214,13.1348941 8.13698759,13.2371765 C8.13970122,13.5976 8.14295758,13.9390823 8.1006249,14.3833882 C8.0973948,14.4138063 8.09009353,14.443656 8.07891584,14.4721412 C7.76793358,15.2563059 6.89631488,15.7579765 5.9036682,16.1243529 C5.4526625,16.2899529 4.99297319,16.4436471 4.57724473,16.6471294 C4.36558142,16.7499529 3.65840884,16.1855059 3.78432136,16.1097412 L3.78432136,16.1097412 Z" fill-rule="nonzero"></path>
                    </g>
                </g>
            </g>
        </g>
    </g>
</svg>