<?xml version="1.0" encoding="UTF-8" standalone="no"?>
<svg width="20px" height="20px" viewBox="0 0 20 20" version="1.1" xmlns="http://www.w3.org/2000/svg" xmlns:xlink="http://www.w3.org/1999/xlink">
    <!-- Generator: Sketch 43.1 (39012) - http://www.bohemiancoding.com/sketch -->
    <title>帮助</title>
    <desc>Created with Sketch.</desc>
    <defs></defs>
    <g id="组织设置" stroke="none" stroke-width="1" fill="none" fill-rule="evenodd">
        <g id="2-1-1组织设置" transform="translate(-1805.000000, -65.000000)" fill-rule="nonzero" fill="#3DA8F5">
            <g id="帮助" transform="translate(1805.000000, 65.000000)">
                <path d="M10,20 C4.47666666,20 0,15.5233333 0,10 C0,4.47666666 4.47666666,0 10,0 C15.5233333,0 20,4.47666666 20,10 C20,15.5233333 15.5233333,20 10,20 Z M8.88888889,16.6666667 L11.1111111,16.6666667 L11.1111111,14.4444444 L8.88888889,14.4444445 L8.88888889,16.6666667 Z M10.5188889,3.34111111 C8.00777777,3.34111111 5.56444443,4.58444445 5.56444443,7.77777777 L7.77777777,7.78555555 C7.77777777,6.69444443 8.48111111,5.54 9.98333332,5.54 C10.88,5.54 12.1811111,5.90333334 12.1811111,7.23333334 C12.1811111,8.45777779 11.7833333,8.70666668 10.5833333,9.58333334 C9.42555555,10.3711111 8.83333332,11.4011111 8.87555555,12.6711111 L8.87555555,13.3277778 L11.1333333,13.3277778 C11.1333333,11.3166667 12.5544444,11.0744444 13.6411111,9.41666666 C14.2277778,8.56 14.4444444,7.81 14.4444444,6.75666666 C14.4433333,5.09888889 12.8766667,3.34111111 10.5188889,3.34111111 Z" id="Shape"></path>
            </g>
        </g>
    </g>
</svg>