<?xml version="1.0" encoding="UTF-8" standalone="no"?>
<svg width="16px" height="20px" viewBox="0 0 16 20" version="1.1" xmlns="http://www.w3.org/2000/svg" xmlns:xlink="http://www.w3.org/1999/xlink">
    <!-- Generator: Sketch 43.1 (39012) - http://www.bohemiancoding.com/sketch -->
    <title>通知</title>
    <desc>Created with Sketch.</desc>
    <defs></defs>
    <g id="组织设置" stroke="none" stroke-width="1" fill="none" fill-rule="evenodd">
        <g id="2-1-1组织设置" transform="translate(-1581.000000, -14.000000)">
            <g id="Group" transform="translate(1571.000000, 0.000000)">
                <g id="通知" transform="translate(8.000000, 15.000000)">
                    <g stroke-width="1" fill-rule="evenodd" transform="translate(3.000000, 0.000000)"></g>
                    <rect id="Rectangle" x="0" y="0" width="20.2467385" height="20"></rect>
                    <path d="M17.5417063,14.8161655 L16.1196707,12.340331 L16.1196707,7.16587586 C16.1196707,6.08692414 15.7236093,4.94943448 15.0044378,3.96292414 C14.2728337,2.95928276 13.2456888,2.17398621 12.1123365,1.75155862 C12.1057299,1.74910345 12.0990675,1.74678621 12.0923773,1.74466207 C12.0663691,1.73635862 11.9698068,1.70584828 11.8278904,1.66546207 L11.8278904,1.49310345 C11.8278904,0.559503448 11.060382,-0.2 10.1170043,-0.2 C9.17362658,-0.2 8.40609033,0.559531034 8.40609033,1.49310345 L8.40609033,1.65304828 C8.27393047,1.6904 8.19013538,1.71696552 8.18049031,1.72008276 C8.17550051,1.72165517 8.1705386,1.72336552 8.16563243,1.72513103 C7.01491345,2.13746207 5.97023456,2.92195862 5.22396766,3.93401379 C4.49130421,4.92764138 4.08785567,6.0753931 4.08785567,7.16582069 L4.08785567,12.3403034 L2.56610787,14.9906759 C2.38301867,15.3065655 2.38416158,15.6997793 2.56925785,16.0171862 C2.75321121,16.3324966 3.09756275,16.528331 3.4679783,16.528331 L7.22847106,16.528331 C7.44406361,17.9141517 8.65725258,18.9786759 10.1169764,18.9786759 C11.5767002,18.9786759 12.789945,17.9140966 13.0054818,16.528331 L16.7653334,16.528331 C17.3385185,16.528331 17.8048552,16.0674207 17.8048552,15.5009103 C17.8048552,15.2437241 17.7119726,15.0032 17.541762,14.8160828 L17.5417063,14.8161655 Z M10.1169485,0.683834483 C10.5539318,0.683834483 10.9119983,1.02474483 10.9337137,1.45194483 C10.8420297,1.43475862 10.7492307,1.41906207 10.6569056,1.40576552 C10.6173775,1.40013793 10.5778494,1.39975172 10.5392412,1.40433103 C10.523324,1.40204138 10.5071002,1.39964138 10.4906813,1.39713103 C10.3765851,1.38008276 10.2472686,1.36082759 10.1030384,1.36082759 C9.95894768,1.36082759 9.82968692,1.38011034 9.71561856,1.39710345 C9.70165271,1.39917241 9.687882,1.40124138 9.67427853,1.40322759 C9.63433231,1.39793103 9.59335467,1.39784828 9.5522934,1.40353103 C9.4681638,1.41525517 9.38386695,1.42888276 9.30079663,1.4438069 C9.32658188,1.02049655 9.68272495,0.683862069 10.1168649,0.683862069 L10.1169485,0.683834483 Z M10.1169485,18.0949241 C9.15132582,18.0949241 8.34161327,17.4238345 8.13756135,16.5283862 L12.0963915,16.5283862 C11.8923117,17.4238897 11.0825991,18.0949241 10.1169485,18.0949241 L10.1169485,18.0949241 Z M16.7652776,15.6445793 L3.46792255,15.6445793 C3.41557152,15.6445793 3.36756915,15.6179862 3.3427038,15.5753379 C3.31613803,15.5297931 3.31538538,15.4742897 3.34167239,15.4289103 L4.92257295,12.6754483 C4.96081874,12.6089379 4.98088942,12.5336828 4.98088942,12.457131 L4.98088942,7.16582069 C4.98088942,5.25310345 6.47660109,3.27415172 8.4615077,2.5590069 C8.52676529,2.53862069 9.04007293,2.38088276 9.55784072,2.29663448 C9.58864363,2.29997241 9.62003195,2.3001931 9.65169902,2.2969931 C9.721361,2.28998621 9.78617258,2.28027586 9.8488377,2.27095172 C9.94386679,2.25677241 10.0259336,2.24452414 10.1030384,2.24452414 C10.1803106,2.24452414 10.2623773,2.25674483 10.3574901,2.27095172 C10.4200437,2.28030345 10.4848274,2.28995862 10.5543778,2.29696552 C10.5829786,2.29983448 10.611412,2.29997241 10.639288,2.29751724 C11.1766247,2.3865931 11.7249724,2.55633103 11.8077361,2.58245517 C13.7576305,3.31395862 15.2266091,5.28242759 15.2266091,7.1657931 L15.2266091,12.4570483 C15.2266091,12.5336 15.2467356,12.6088828 15.2849256,12.6754207 L16.792596,15.300331 C16.8136703,15.3369655 16.8399294,15.3705655 16.8706208,15.3998621 C16.8971308,15.4252138 16.9117378,15.4610483 16.9117378,15.5008276 C16.9116821,15.5813517 16.8474001,15.6445241 16.7652776,15.6445241 L16.7652776,15.6445793 Z" id="Shape" fill="#4C5C6F" fill-rule="nonzero"></path>
                </g>
            </g>
        </g>
    </g>
</svg>