<?xml version="1.0" encoding="UTF-8"?>
<svg width="19px" height="14px" viewBox="0 0 19 14" version="1.1" xmlns="http://www.w3.org/2000/svg" xmlns:xlink="http://www.w3.org/1999/xlink">
    <!-- Generator: Sketch 44.1 (41455) - http://www.bohemiancoding.com/sketch -->
    <title>Shape</title>
    <desc>Created with Sketch.</desc>
    <defs></defs>
    <g id="管理者主页" stroke="none" stroke-width="1" fill="none" fill-rule="evenodd">
        <g id="3-2-1考核管理已提交审核" transform="translate(-487.000000, -475.000000)" fill-rule="nonzero" fill="#3DA8F5">
            <g id="Group-5" transform="translate(410.000000, 120.000000)">
                <path d="M88.521881,365.402506 C87.4773675,365.119154 86.2934953,365.044514 85.4668143,363.900045 C85.4668143,363.900045 85.0446793,363.399685 85.999895,362.177812 C86.9605227,360.951793 87.0403495,359.008407 86.7981631,357.505945 C86.5613887,356.003484 85.2029799,355 83.7931573,355 C82.3846876,355 81.0262789,356.003484 80.7867985,357.505945 C80.543259,359.008407 80.6244388,360.951793 81.5850666,362.177812 C82.5416353,363.399685 82.1195003,363.900045 82.1195003,363.900045 C81.2968782,365.033457 80.12383,365.116389 79.0847285,365.395595 C78.6734175,365.508937 78.2796954,365.651304 77.9400933,365.904248 C76.7359261,366.794391 77.0322324,368.822092 77.0322324,368.822092 L90.5540821,368.822092 C90.5540821,368.822092 90.8490354,366.794391 89.6475743,365.905631 C89.3147371,365.656833 88.92778,365.518612 88.523234,365.402506 L88.521881,365.402506 Z M93.9379271,365.409417 C92.8825896,365.119154 90.4607254,363.403832 91.4078231,362.175048 C92.3684508,360.957322 92.4496306,359.009789 92.2060912,357.501799 C91.9760817,356.010395 90.609555,355 89.2024384,355 C88.5800599,355 87.9576813,355.208714 87.4435426,355.580528 C87.7953217,356.079505 88.0253312,356.660033 88.1335709,357.282027 C88.2959305,358.30348 88.52594,360.777634 87.3217729,362.657439 C87.3217729,363.293255 87.3217729,363.293255 87.5923722,363.736944 C87.7953217,363.804673 88.0118012,363.861343 88.2688706,363.916632 C88.4718201,363.97192 88.6747696,364.012004 88.8641892,364.067292 C89.364798,364.206895 89.9195267,364.399023 90.4471954,364.786041 C92.0302016,365.960919 91.9760817,368.118548 91.9219619,368.822092 L95.9674222,368.822092 C95.9674222,368.822092 96.2650815,366.791627 95.0609144,365.905631 C94.7226652,365.656833 94.3438261,365.519994 93.9379271,365.409417 L93.9379271,365.409417 Z" id="Shape"></path>
            </g>
        </g>
    </g>
</svg>