<?xml version="1.0" encoding="UTF-8"?>
<svg width="16px" height="16px" viewBox="0 0 16 16" version="1.1" xmlns="http://www.w3.org/2000/svg" xmlns:xlink="http://www.w3.org/1999/xlink">
    <!-- Generator: Sketch 44.1 (41455) - http://www.bohemiancoding.com/sketch -->
    <title>Shape</title>
    <desc>Created with Sketch.</desc>
    <defs></defs>
    <g id="管理者主页" stroke="none" stroke-width="1" fill="none" fill-rule="evenodd">
        <g id="3-2-1考核管理已提交审核" transform="translate(-420.000000, -244.000000)" fill-rule="nonzero" fill="#6099BC">
            <g id="Group-6" transform="translate(410.000000, 120.000000)">
                <g id="Group-12" transform="translate(0.000000, 112.000000)">
                    <path d="M25.359,28 L10.64,28 C10.287,28 10,27.713 10,27.359 L10,27.1 C10,26.746 10.287,26.46 10.64,26.46 L25.359,26.46 C25.713,26.46 26,26.746 26,27.1 L26,27.36 C26,27.713 25.713,28 25.359,28 Z M25.05,25.23 L22.02,25.23 C21.666,25.23 21.381,24.943 21.381,24.589 L21.381,15.72 C21.381,15.366 21.666,15.08 22.02,15.08 L25.05,15.08 C25.404,15.08 25.69,15.366 25.69,15.72 L25.69,24.59 C25.689,24.943 25.403,25.23 25.05,25.23 Z M19.51,25.23 L16.49,25.23 C16.136,25.23 15.849,24.943 15.849,24.589 L15.849,12.64 C15.85,12.287 16.137,12 16.49,12 L19.51,12 C19.864,12 20.151,12.287 20.151,12.64 L20.151,24.59 C20.15,24.943 19.863,25.23 19.51,25.23 Z M13.98,25.23 L10.95,25.23 C10.596,25.23 10.31,24.943 10.31,24.589 L10.31,18.789 C10.31,18.435 10.597,18.149 10.95,18.149 L13.98,18.149 C14.334,18.149 14.62,18.436 14.62,18.789 L14.62,24.589 C14.62,24.943 14.333,25.23 13.98,25.23 Z" id="Shape"></path>
                </g>
            </g>
        </g>
    </g>
</svg>