<?xml version="1.0" encoding="UTF-8" standalone="no"?>
<svg width="14px" height="15px" viewBox="0 0 14 15" version="1.1" xmlns="http://www.w3.org/2000/svg" xmlns:xlink="http://www.w3.org/1999/xlink">
    <!-- Generator: Sketch 44.1 (41455) - http://www.bohemiancoding.com/sketch -->
    <title>时间 </title>
    <desc>Created with Sketch.</desc>
    <defs></defs>
    <g id="管理者主页" stroke="none" stroke-width="1" fill="none" fill-rule="evenodd">
        <g id="3-4-1任务管理" transform="translate(-545.000000, -328.000000)" fill-rule="nonzero" fill="#F1A085">
            <g id="Group-6" transform="translate(520.000000, 152.000000)">
                <g id="Group-3" transform="translate(10.000000, 52.000000)">
                    <g id="时间-" transform="translate(15.000000, 124.426606)">
                        <path d="M6.99594785,5.33909383e-16 C10.8597274,0 13.9919519,3.14301928 13.9919519,7.02001648 C13.9919519,10.8969949 10.8596899,14.040033 6.99594785,14.040033 C3.13220577,14.040033 0,10.8970137 0,7.02001648 C0,3.14300049 3.13220577,5.33909383e-16 6.99594785,5.33909383e-16 Z M10.027529,7.48807018 L6.99594785,7.48807018 L6.99594785,4.44602171 C6.99594785,4.31670394 6.89165394,4.21201365 6.7627421,4.21201365 L6.29634932,4.21201365 C6.16745621,4.21201365 6.06314357,4.31670394 6.06314357,4.44602171 L6.06314357,8.19003801 C6.06314357,8.31935579 6.16743748,8.42400851 6.29634932,8.42400851 L10.0275477,8.42400851 C10.1564408,8.42400851 10.2607535,8.31935579 10.2607535,8.19003801 L10.2607535,7.72204067 C10.2607348,7.5927229 10.1564221,7.48807018 10.027529,7.48807018 Z" id="Shape"></path>
                    </g>
                </g>
            </g>
        </g>
    </g>
</svg>