<?xml version="1.0" encoding="UTF-8"?>
<svg width="15px" height="15px" viewBox="0 0 15 15" version="1.1" xmlns="http://www.w3.org/2000/svg" xmlns:xlink="http://www.w3.org/1999/xlink">
    <!-- Generator: Sketch 44.1 (41455) - http://www.bohemiancoding.com/sketch -->
    <title>表情 copy</title>
    <desc>Created with Sketch.</desc>
    <defs></defs>
    <g id="管理者主页" stroke="none" stroke-width="1" fill="none" fill-rule="evenodd">
        <g id="3-1-3日清表填写" transform="translate(-772.000000, -790.000000)" fill="#3DA8F5">
            <g id="Group-7-Copy-3" transform="translate(510.000000, 19.000000)">
                <g id="Group-9-Copy-6" transform="translate(20.000000, 758.000000)">
                    <g id="表情-copy" transform="translate(242.000000, 13.000000)">
                        <path d="M10.3168929,6.56103061 C10.835449,6.56103061 11.2558622,6.14014286 11.2558622,5.62158673 C11.2558622,5.10303061 10.835449,4.68310714 10.3168929,4.68310714 C9.79833673,4.68310714 9.37792347,5.10304592 9.37792347,5.62158673 C9.37792347,6.14012755 9.79833673,6.56103061 10.3168929,6.56103061 Z M4.68310714,6.56103061 C5.20166327,6.56103061 5.62207653,6.14014286 5.62207653,5.62158673 C5.62207653,5.10303061 5.20166327,4.68310714 4.68310714,4.68310714 C4.16455102,4.68310714 3.74413776,5.10304592 3.74413776,5.62158673 C3.74413776,6.14012755 4.16455102,6.56103061 4.68310714,6.56103061 Z" id="Shape" fill-rule="nonzero"></path>
                        <path d="M7.5,0 C3.39990306,0 0,3.39990306 0,7.49952551 C0,11.6000969 3.39990306,15 7.5,15 C11.5996071,15 15,11.6000969 15,7.49952551 C15,3.39990306 11.5996071,0 7.5,0 Z M7.5,13.9995153 C3.90038265,13.9995153 1.00048469,11.1001071 1.00048469,7.49952551 C1.00048469,3.89990816 3.90038265,1.00048469 7.5,1.00048469 C11.099602,1.00048469 13.9990255,3.89990816 13.9990255,7.49952551 C13.9990255,11.1001071 11.099602,13.9995153 7.5,13.9995153 Z" id="Shape" fill-rule="nonzero"></path>
                        <rect id="Rectangle-12" x="4" y="10" width="7" height="1" rx="0.5"></rect>
                    </g>
                </g>
            </g>
        </g>
    </g>
</svg>