<?xml version="1.0" encoding="UTF-8" standalone="no"?>
<svg width="100px" height="3px" viewBox="0 0 129 3" version="1.1" xmlns="http://www.w3.org/2000/svg" xmlns:xlink="http://www.w3.org/1999/xlink">
    <!-- Generator: Sketch 43.1 (39012) - http://www.bohemiancoding.com/sketch -->
    <title>Group 10 Copy 2</title>
    <desc>Created with Sketch.</desc>
    <defs></defs>
    <g id="组织设置" stroke="none" stroke-width="1" fill="none" fill-rule="evenodd">
        <g id="2-1-6岗位职责配置" transform="translate(-1238.000000, -128.000000)" fill="#CCCCCC">
            <g id="Group-11" transform="translate(463.000000, 120.000000)">
                <g id="Group-10-Copy-2" transform="translate(775.000000, 8.000000)">
                    <circle id="Oval-4" cx="1.5" cy="1.5" r="1.5"></circle>
                    <circle id="Oval-4-Copy" cx="8.5" cy="1.5" r="1.5"></circle>
                    <circle id="Oval-4-Copy-2" cx="15.5" cy="1.5" r="1.5"></circle>
                    <circle id="Oval-4-Copy-3" cx="22.5" cy="1.5" r="1.5"></circle>
                    <circle id="Oval-4-Copy-4" cx="29.5" cy="1.5" r="1.5"></circle>
                    <circle id="Oval-4-Copy-5" cx="36.5" cy="1.5" r="1.5"></circle>
                    <circle id="Oval-4-Copy-6" cx="43.5" cy="1.5" r="1.5"></circle>
                    <circle id="Oval-4-Copy-7" cx="50.5" cy="1.5" r="1.5"></circle>
                    <circle id="Oval-4-Copy-11" cx="78.5" cy="1.5" r="1.5"></circle>
                    <circle id="Oval-4-Copy-15" cx="106.5" cy="1.5" r="1.5"></circle>
                    <circle id="Oval-4-Copy-8" cx="57.5" cy="1.5" r="1.5"></circle>
                    <circle id="Oval-4-Copy-12" cx="85.5" cy="1.5" r="1.5"></circle>
                    <circle id="Oval-4-Copy-16" cx="113.5" cy="1.5" r="1.5"></circle>
                    <circle id="Oval-4-Copy-9" cx="64.5" cy="1.5" r="1.5"></circle>
                    <circle id="Oval-4-Copy-13" cx="92.5" cy="1.5" r="1.5"></circle>
                    <circle id="Oval-4-Copy-17" cx="120.5" cy="1.5" r="1.5"></circle>
                    <circle id="Oval-4-Copy-10" cx="71.5" cy="1.5" r="1.5"></circle>
                    <circle id="Oval-4-Copy-14" cx="99.5" cy="1.5" r="1.5"></circle>
                    <circle id="Oval-4-Copy-18" cx="127.5" cy="1.5" r="1.5"></circle>
                </g>
            </g>
        </g>
    </g>
</svg>
