<?xml version="1.0" encoding="UTF-8"?>
<svg width="15px" height="15px" viewBox="0 0 15 15" version="1.1" xmlns="http://www.w3.org/2000/svg" xmlns:xlink="http://www.w3.org/1999/xlink">
    <!-- Generator: Sketch 44.1 (41455) - http://www.bohemiancoding.com/sketch -->
    <title>表情 copy 2</title>
    <desc>Created with Sketch.</desc>
    <defs></defs>
    <g id="管理者主页" stroke="none" stroke-width="1" fill="none" fill-rule="evenodd">
        <g id="3-1-3日清表填写" transform="translate(-855.000000, -790.000000)" fill-rule="nonzero" fill="#3DA8F5">
            <g id="Group-7-Copy-3" transform="translate(510.000000, 19.000000)">
                <g id="Group-9-Copy-6" transform="translate(20.000000, 758.000000)">
                    <g id="表情-copy-2" transform="translate(325.000000, 13.000000)">
                        <path d="M10.3168929,6.56103061 C10.835449,6.56103061 11.2558622,6.14014286 11.2558622,5.62158673 C11.2558622,5.10303061 10.835449,4.68310714 10.3168929,4.68310714 C9.79833673,4.68310714 9.37792347,5.10304592 9.37792347,5.62158673 C9.37792347,6.14012755 9.79833673,6.56103061 10.3168929,6.56103061 Z M4.68310714,6.56103061 C5.20166327,6.56103061 5.62207653,6.14014286 5.62207653,5.62158673 C5.62207653,5.10303061 5.20166327,4.68310714 4.68310714,4.68310714 C4.16455102,4.68310714 3.74413776,5.10304592 3.74413776,5.62158673 C3.74413776,6.14012755 4.16455102,6.56103061 4.68310714,6.56103061 Z" id="Shape"></path>
                        <path d="M7.5,0 C3.39990306,0 0,3.39990306 0,7.49952551 C0,11.6000969 3.39990306,15 7.5,15 C11.5996071,15 15,11.6000969 15,7.49952551 C15,3.39990306 11.5996071,0 7.5,0 Z M7.5,13.9995153 C3.90038265,13.9995153 1.00048469,11.1001071 1.00048469,7.49952551 C1.00048469,3.89990816 3.90038265,1.00048469 7.5,1.00048469 C11.099602,1.00048469 13.9990255,3.89990816 13.9990255,7.49952551 C13.9990255,11.1001071 11.099602,13.9995153 7.5,13.9995153 Z" id="Shape"></path>
                        <path d="M11.1601531,8.25146939 C10.9721633,8.15820918 10.6909133,8.25146939 10.5961837,8.53369898 C10.503398,8.81591327 10.3154235,9.18994898 10.1274337,9.47266837 C9.56444388,10.318852 8.5302551,10.787602 7.49804082,10.787602 C6.46679082,10.787602 5.52734694,10.3168929 4.77636735,9.37842857 C4.58984694,9.09717857 4.40040306,8.81496429 4.30761735,8.43896939 C4.21290306,8.24952551 4.02636735,8.0634949 3.74415306,8.1567551 C3.55469388,8.25146939 3.36818878,8.5322449 3.46193878,8.81496429 C3.65090816,9.18996429 3.83693878,9.65871429 4.11965816,10.0346786 C4.87109694,11.0668929 6.18554082,11.725102 7.5,11.725102 C8.81444388,11.725102 10.1289031,11.0683622 10.7841735,10.0346786 C11.0663878,9.65871429 11.3476378,9.28371429 11.4423673,8.81496429 C11.5351531,8.62695918 11.4423673,8.3442398 11.1601531,8.25146939 Z" id="Shape" transform="translate(7.457014, 9.928513) scale(1, -1) translate(-7.457014, -9.928513) "></path>
                    </g>
                </g>
            </g>
        </g>
    </g>
</svg>